<svg width="226" height="42" viewBox="0 0 226 42" fill="none" xmlns="http://www.w3.org/2000/svg">
<g clip-path="url(#clip0_67_1269)">
<path d="M19.8163 0H0V19.9617H19.8163V0Z" fill="#001968"/>
<path d="M41.6942 0H21.8779V19.9617H41.6942V0Z" fill="#001968"/>
<path d="M19.8163 22.0383H0V42H19.8163V22.0383Z" fill="#001968"/>
<path d="M41.6942 22.0383H21.8779V42H41.6942V22.0383Z" fill="#001968"/>
<path d="M83.8806 8.40002H88.4149L81.5932 33.6H76.5146L71.4882 14.5834H71.3839L66.3575 33.6H61.1746L54.1967 8.40002H58.9394L63.8095 28.3267H63.9137L69.3571 8.40002H73.9956L79.0742 28.2917H79.1784L83.869 8.40002H83.8806Z" fill="#001968"/>
<path d="M89.8279 10.3133C89.8279 9.6075 90.0827 9.02417 90.5865 8.54583C91.0903 8.0675 91.6925 7.83417 92.3932 7.83417C93.1403 7.83417 93.7541 8.07917 94.2405 8.56333C94.727 9.0475 94.976 9.63083 94.976 10.3133C94.976 10.9958 94.727 11.585 94.2232 12.0517C93.7193 12.5183 93.1113 12.7575 92.3932 12.7575C91.6752 12.7575 91.0671 12.5183 90.5691 12.0458C90.0711 11.5733 89.8279 10.9958 89.8279 10.3133ZM94.4895 15.5342V33.6H90.268V15.5342H94.4895Z" fill="#001968"/>
<path d="M114.653 22.5458V33.6H110.432V23.5141C110.432 21.8633 110.154 20.6325 109.604 19.8216C109.054 19.0108 108.162 18.6083 106.946 18.6083C105.73 18.6083 104.78 19.0575 104.004 19.9616C103.228 20.8658 102.846 21.9975 102.846 23.3683V33.5941H98.6242V15.5283H102.846V17.92H102.915C103.575 16.9925 104.392 16.2983 105.359 15.8375C106.326 15.3766 107.438 15.1433 108.706 15.1433C110.611 15.1433 112.082 15.7558 113.113 16.9808C114.144 18.2058 114.659 20.0608 114.659 22.5458H114.653Z" fill="#001968"/>
<path d="M130.937 6.95917H135.159V33.6H130.937V31.2083H130.868C130.231 32.1008 129.42 32.7658 128.453 33.2033C127.48 33.6408 126.345 33.8625 125.042 33.8625C122.784 33.8625 120.988 33.0808 119.651 31.5233C118.313 29.9658 117.647 27.8017 117.647 25.0367C117.647 22.05 118.388 19.6583 119.871 17.8558C121.353 16.0592 123.34 15.1608 125.83 15.1608C126.959 15.1608 127.955 15.3475 128.812 15.7208C129.675 16.0942 130.358 16.6425 130.868 17.3542H130.937V6.95917ZM126.467 30.5958C127.746 30.5958 128.818 30.0883 129.675 29.0675C130.538 28.0467 130.966 26.7167 130.966 25.0775V23.1467C130.966 21.8925 130.555 20.825 129.738 19.9383C128.916 19.0517 127.897 18.6142 126.675 18.6142C125.187 18.6142 124.04 19.1625 123.23 20.265C122.419 21.3675 122.019 22.9133 122.019 24.9025C122.019 26.6933 122.419 28.0933 123.212 29.0967C124.011 30.1 125.094 30.6017 126.467 30.6017V30.5958Z" fill="#001968"/>
<path d="M138.072 24.8325C138.072 21.8459 138.911 19.4775 140.585 17.7334C142.258 15.9892 144.586 15.1142 147.563 15.1142C150.366 15.1142 152.554 15.9542 154.13 17.6342C155.705 19.3142 156.492 21.5834 156.492 24.4417C156.492 27.3 155.653 29.7034 153.979 31.4359C152.305 33.1684 150.024 34.0375 147.14 34.0375C144.256 34.0375 142.154 33.215 140.521 31.57C138.888 29.925 138.072 27.6792 138.072 24.8325ZM142.473 24.6867C142.473 26.5709 142.895 28.0117 143.747 29.0092C144.598 30.0067 145.808 30.5025 147.395 30.5025C148.982 30.5025 150.099 30.0067 150.904 29.0092C151.709 28.0117 152.109 26.5359 152.109 24.5817C152.109 22.6275 151.692 21.1692 150.864 20.1775C150.03 19.1859 148.866 18.69 147.366 18.69C145.866 18.69 144.621 19.2092 143.764 20.2475C142.907 21.2859 142.484 22.7617 142.484 24.6867H142.473Z" fill="#001968"/>
<path d="M179.945 15.5342H183.993L178.758 33.6H174.276L170.732 20.51H170.663L166.945 33.6H162.515L157.297 15.5342H161.675L165.005 29.3825H165.109L169.035 15.5342H173.066L176.61 29.435H176.714L179.94 15.5342H179.945Z" fill="#001968"/>
<path d="M189.338 20.2767C189.338 20.8833 189.529 21.3617 189.911 21.7117C190.294 22.0558 191.145 22.4933 192.459 23.0183C194.145 23.7008 195.332 24.465 196.009 25.3108C196.693 26.1625 197.028 27.1892 197.028 28.3967C197.028 30.0942 196.38 31.4592 195.083 32.4917C193.786 33.5242 192.031 34.0375 189.825 34.0375C189.078 34.0375 188.255 33.9442 187.358 33.7633C186.454 33.5825 185.69 33.3492 185.064 33.0692V28.8867C185.835 29.4233 186.657 29.855 187.543 30.17C188.429 30.485 189.228 30.6425 189.952 30.6425C190.907 30.6425 191.608 30.5083 192.066 30.24C192.517 29.9717 192.743 29.5225 192.743 28.8867C192.743 28.3033 192.506 27.8075 192.037 27.3992C191.568 26.9908 190.67 26.53 189.355 25.9992C187.798 25.3458 186.692 24.605 186.043 23.7825C185.389 22.96 185.064 21.9217 185.064 20.6558C185.064 19.0283 185.707 17.6867 186.993 16.6425C188.278 15.5925 189.946 15.0675 191.99 15.0675C192.616 15.0675 193.322 15.1375 194.104 15.2775C194.886 15.4175 195.534 15.5983 196.061 15.82V19.8625C195.505 19.4892 194.851 19.1683 194.104 18.8942C193.357 18.6258 192.622 18.4917 191.886 18.4917C191.081 18.4917 190.456 18.6492 190.01 18.9642C189.564 19.2792 189.338 19.7167 189.338 20.265V20.2767Z" fill="#001968"/>
<path d="M203.914 11.6667C205.471 11.1533 206.844 10.5875 208.019 9.98083C209.201 9.37417 210.353 8.65667 211.482 7.83417H213.399V33.6H209.178V12.985C208.488 13.4867 207.701 13.9358 206.815 14.3267C205.923 14.7175 204.956 15.0383 203.908 15.2833V11.6608L203.914 11.6667Z" fill="#001968"/>
<path d="M216.509 11.6667C218.066 11.1533 219.439 10.5875 220.614 9.98083C221.796 9.37417 222.948 8.65667 224.077 7.83417H225.994V33.6H221.773V12.985C221.084 13.4867 220.296 13.9358 219.41 14.3267C218.518 14.7175 217.551 15.0383 216.503 15.2833V11.6608L216.509 11.6667Z" fill="#001968"/>
</g>
<defs>
<clipPath id="clip0_67_1269">
<rect width="226" height="42" fill="white"/>
</clipPath>
</defs>
</svg>
